<?xml version="1.0" encoding="UTF-8" standalone="no"?><svg xmlns="http://www.w3.org/2000/svg" xmlns:xlink="http://www.w3.org/1999/xlink" contentScriptType="application/ecmascript" contentStyleType="text/css" height="945px" preserveAspectRatio="none" style="width:1236px;height:945px;" version="1.1" viewBox="0 0 1236 945" width="1236px" zoomAndPan="magnify"><defs/><g><ellipse cx="917.3564" cy="69.208" fill="#F8F8F8" rx="51.7904" ry="13.242" style="stroke: #383838; stroke-width: 0.5;"/><text fill="#000000" font-family="Tahoma, sans-serif" font-size="12" lengthAdjust="spacingAndGlyphs" textLength="69" x="882.8564" y="72.9502">AddTilePage</text><ellipse cx="741.4066" cy="622.208" fill="#F8F8F8" rx="46.8406" ry="13.242" style="stroke: #383838; stroke-width: 0.5;"/><text fill="#000000" font-family="Tahoma, sans-serif" font-size="12" lengthAdjust="spacingAndGlyphs" textLength="62" x="710.4066" y="625.9502">AlertConfig</text><ellipse cx="741.3356" cy="470.208" fill="#F8F8F8" rx="39.7696" ry="13.242" style="stroke: #383838; stroke-width: 0.5;"/><text fill="#000000" font-family="Tahoma, sans-serif" font-size="12" lengthAdjust="spacingAndGlyphs" textLength="52" x="715.3356" y="473.9502">AlertsList</text><ellipse cx="101.9157" cy="572.208" fill="#F8F8F8" rx="17.8492" ry="13.242" style="stroke: #383838; stroke-width: 0.5;"/><text fill="#000000" font-family="Tahoma, sans-serif" font-size="12" lengthAdjust="spacingAndGlyphs" textLength="21" x="91.4157" y="575.9502">App</text><ellipse cx="102.2503" cy="424.208" fill="#F8F8F8" rx="41.1838" ry="13.242" style="stroke: #383838; stroke-width: 0.5;"/><text fill="#000000" font-family="Tahoma, sans-serif" font-size="12" font-weight="bold" lengthAdjust="spacingAndGlyphs" textLength="54" x="75.2503" y="427.9502">App.test</text><ellipse cx="404.5635" cy="591.208" fill="#F8F8F8" rx="52.4975" ry="13.242" style="stroke: #383838; stroke-width: 0.5;"/><text fill="#000000" font-family="Tahoma, sans-serif" font-size="12" lengthAdjust="spacingAndGlyphs" textLength="70" x="369.5635" y="594.9502">authwrapper</text><ellipse cx="252.3" cy="41.208" fill="#F8F8F8" rx="36.234" ry="13.242" style="stroke: #383838; stroke-width: 0.5;"/><text fill="#000000" font-family="Tahoma, sans-serif" font-size="12" lengthAdjust="spacingAndGlyphs" textLength="47" x="228.8" y="44.9502">callback</text><ellipse cx="741.337" cy="420.8202" fill="#F8F8F8" rx="54.771" ry="13.3542" style="stroke: #383838; stroke-width: 0.5;"/><text fill="#000000" font-family="Tahoma, sans-serif" font-size="12" lengthAdjust="spacingAndGlyphs" textLength="74" x="704.337" y="424.5624">CSVUploader</text><ellipse cx="252.1995" cy="450.208" fill="#F8F8F8" rx="46.1335" ry="13.242" style="stroke: #383838; stroke-width: 0.5;"/><text fill="#000000" font-family="Tahoma, sans-serif" font-size="12" lengthAdjust="spacingAndGlyphs" textLength="61" x="221.6995" y="453.9502">dashboard</text><ellipse cx="1079.3248" cy="118.208" fill="#F8F8F8" rx="48.2548" ry="13.242" style="stroke: #383838; stroke-width: 0.5;"/><text fill="#000000" font-family="Tahoma, sans-serif" font-size="12" lengthAdjust="spacingAndGlyphs" textLength="64" x="1047.3248" y="121.9502">DashBoard</text><ellipse cx="917.3969" cy="270.7322" fill="#F8F8F8" rx="64.3309" ry="15.2662" style="stroke: #383838; stroke-width: 0.5;"/><text fill="#000000" font-family="Tahoma, sans-serif" font-size="12" lengthAdjust="spacingAndGlyphs" textLength="99" x="867.8969" y="274.4744">DatabaseManage</text><ellipse cx="741.6431" cy="270.9814" fill="#F8F8F8" rx="58.0771" ry="14.0154" style="stroke: #383838; stroke-width: 0.5;"/><text fill="#000000" font-family="Tahoma, sans-serif" font-size="12" lengthAdjust="spacingAndGlyphs" textLength="83" x="700.1431" y="274.7236">DatabasePage</text><ellipse cx="741.7944" cy="519.9117" fill="#F8F8F8" rx="62.7284" ry="14.9457" style="stroke: #383838; stroke-width: 0.5;"/><text fill="#000000" font-family="Tahoma, sans-serif" font-size="12" lengthAdjust="spacingAndGlyphs" textLength="95" x="694.2944" y="523.6539">DatabaseUpload</text><ellipse cx="917.3935" cy="322.8315" fill="#F8F8F8" rx="57.3275" ry="13.8655" style="stroke: #383838; stroke-width: 0.5;"/><text fill="#000000" font-family="Tahoma, sans-serif" font-size="12" lengthAdjust="spacingAndGlyphs" textLength="81" x="876.8935" y="326.5737">DatabaseView</text><ellipse cx="404.7819" cy="356.2092" fill="#F8F8F8" rx="59.2159" ry="14.2432" style="stroke: #383838; stroke-width: 0.5;"/><text fill="#000000" font-family="Tahoma, sans-serif" font-size="12" lengthAdjust="spacingAndGlyphs" textLength="86" x="361.7819" y="359.9514">datageneration</text><ellipse cx="573.7673" cy="369.9063" fill="#F8F8F8" rx="57.7013" ry="13.9403" style="stroke: #383838; stroke-width: 0.5;"/><text fill="#000000" font-family="Tahoma, sans-serif" font-size="12" lengthAdjust="spacingAndGlyphs" textLength="82" x="532.7673" y="373.6484">DataIngestion</text><ellipse cx="1079.5822" cy="24.208" fill="#F8F8F8" rx="44.0122" ry="13.242" style="stroke: #383838; stroke-width: 0.5;"/><text fill="#000000" font-family="Tahoma, sans-serif" font-size="12" lengthAdjust="spacingAndGlyphs" textLength="58" x="1050.5822" y="27.9502">DataTable</text><ellipse cx="917.5955" cy="424.9719" fill="#F8F8F8" rx="70.5295" ry="16.5059" style="stroke: #383838; stroke-width: 0.5;"/><text fill="#000000" font-family="Tahoma, sans-serif" font-size="12" lengthAdjust="spacingAndGlyphs" textLength="114" x="860.5955" y="428.7141">DestinationSelector</text><ellipse cx="573.3975" cy="545.8323" fill="#F8F8F8" rx="62.3315" ry="14.8663" style="stroke: #383838; stroke-width: 0.5;"/><text fill="#000000" font-family="Tahoma, sans-serif" font-size="12" lengthAdjust="spacingAndGlyphs" textLength="94" x="526.3975" y="549.5745">emailverification</text><ellipse cx="573.3935" cy="446.8315" fill="#F8F8F8" rx="57.3275" ry="13.8655" style="stroke: #383838; stroke-width: 0.5;"/><text fill="#000000" font-family="Tahoma, sans-serif" font-size="12" lengthAdjust="spacingAndGlyphs" textLength="81" x="532.8935" y="450.5737">faultmainpage</text><ellipse cx="573.7142" cy="496.208" fill="#F8F8F8" rx="37.6482" ry="13.242" style="stroke: #383838; stroke-width: 0.5;"/><text fill="#000000" font-family="Tahoma, sans-serif" font-size="12" lengthAdjust="spacingAndGlyphs" textLength="49" x="549.2142" y="499.9502">faultside</text><ellipse cx="1198.1116" cy="119.208" fill="#F8F8F8" rx="27.0416" ry="13.242" style="stroke: #383838; stroke-width: 0.5;"/><text fill="#000000" font-family="Tahoma, sans-serif" font-size="12" lengthAdjust="spacingAndGlyphs" textLength="34" x="1181.1116" y="122.9502">Graph</text><ellipse cx="741.6432" cy="693.208" fill="#F8F8F8" rx="30.5772" ry="13.242" style="stroke: #383838; stroke-width: 0.5;"/><text fill="#000000" font-family="Tahoma, sans-serif" font-size="12" lengthAdjust="spacingAndGlyphs" textLength="39" x="722.1432" y="696.9502">header</text><ellipse cx="102.3152" cy="472.208" fill="#F8F8F8" rx="27.7487" ry="13.242" style="stroke: #383838; stroke-width: 0.5;"/><text fill="#000000" font-family="Tahoma, sans-serif" font-size="12" font-weight="bold" lengthAdjust="spacingAndGlyphs" textLength="35" x="84.8152" y="475.9502">index</text><ellipse cx="917.6787" cy="117.208" fill="#F8F8F8" rx="34.1127" ry="13.242" style="stroke: #383838; stroke-width: 0.5;"/><text fill="#000000" font-family="Tahoma, sans-serif" font-size="12" lengthAdjust="spacingAndGlyphs" textLength="44" x="895.6787" y="120.9502">Landing</text><ellipse cx="917.7847" cy="373.1097" fill="#F8F8F8" rx="56.2187" ry="13.6437" style="stroke: #383838; stroke-width: 0.5;"/><text fill="#000000" font-family="Tahoma, sans-serif" font-size="12" lengthAdjust="spacingAndGlyphs" textLength="78" x="878.7847" y="376.8519">LatestPhones</text><ellipse cx="404.5574" cy="543.208" fill="#F8F8F8" rx="31.9914" ry="13.242" style="stroke: #383838; stroke-width: 0.5;"/><text fill="#000000" font-family="Tahoma, sans-serif" font-size="12" font-weight="bold" lengthAdjust="spacingAndGlyphs" textLength="41" x="384.0574" y="546.9502">layout</text><ellipse cx="917.7645" cy="21.208" fill="#F8F8F8" rx="32.6985" ry="13.242" style="stroke: #383838; stroke-width: 0.5;"/><text fill="#000000" font-family="Tahoma, sans-serif" font-size="12" lengthAdjust="spacingAndGlyphs" textLength="42" x="896.7645" y="24.9502">loading</text><ellipse cx="251.865" cy="693.208" fill="#F8F8F8" rx="22.799" ry="13.242" style="stroke: #383838; stroke-width: 0.5;"/><text fill="#000000" font-family="Tahoma, sans-serif" font-size="12" lengthAdjust="spacingAndGlyphs" textLength="28" x="237.865" y="696.9502">login</text><ellipse cx="404.664" cy="740.208" fill="#F8F8F8" rx="42.598" ry="13.242" style="stroke: #383838; stroke-width: 0.5;"/><text fill="#000000" font-family="Tahoma, sans-serif" font-size="12" lengthAdjust="spacingAndGlyphs" textLength="56" x="376.664" y="743.9502">loginpage</text><ellipse cx="741.5023" cy="369.7533" fill="#F8F8F8" rx="61.9363" ry="14.7873" style="stroke: #383838; stroke-width: 0.5;"/><text fill="#000000" font-family="Tahoma, sans-serif" font-size="12" lengthAdjust="spacingAndGlyphs" textLength="93" x="695.0023" y="373.4954">PhoneSpecsApp</text><ellipse cx="741.4422" cy="320.208" fill="#F8F8F8" rx="50.3762" ry="13.242" style="stroke: #383838; stroke-width: 0.5;"/><text fill="#000000" font-family="Tahoma, sans-serif" font-size="12" lengthAdjust="spacingAndGlyphs" textLength="67" x="707.9422" y="323.9502">PhoneTable</text><ellipse cx="917.7165" cy="219.0961" fill="#F8F8F8" rx="61.1505" ry="14.6301" style="stroke: #383838; stroke-width: 0.5;"/><text fill="#000000" font-family="Tahoma, sans-serif" font-size="12" lengthAdjust="spacingAndGlyphs" textLength="91" x="872.2165" y="222.8383">Read_OnlyDash</text><ellipse cx="101.8266" cy="522.018" fill="#F8F8F8" rx="60.7601" ry="14.552" style="stroke: #383838; stroke-width: 0.5;"/><text fill="#000000" font-family="Tahoma, sans-serif" font-size="12" lengthAdjust="spacingAndGlyphs" textLength="90" x="56.8266" y="525.7602">reportWebVitals</text><ellipse cx="741.6653" cy="571.7859" fill="#F8F8F8" rx="59.5993" ry="14.3199" style="stroke: #383838; stroke-width: 0.5;"/><text fill="#000000" font-family="Tahoma, sans-serif" font-size="12" lengthAdjust="spacingAndGlyphs" textLength="87" x="698.1653" y="575.528">SchemaUpload</text><ellipse cx="101.8375" cy="374.8202" fill="#F8F8F8" rx="54.771" ry="13.3542" style="stroke: #383838; stroke-width: 0.5;"/><text fill="#000000" font-family="Tahoma, sans-serif" font-size="12" font-weight="bold" lengthAdjust="spacingAndGlyphs" textLength="74" x="64.8375" y="378.5624">setupTests</text><ellipse cx="251.9361" cy="787.208" fill="#F8F8F8" rx="29.8701" ry="13.242" style="stroke: #383838; stroke-width: 0.5;"/><text fill="#000000" font-family="Tahoma, sans-serif" font-size="12" lengthAdjust="spacingAndGlyphs" textLength="38" x="232.9361" y="790.9502">signup</text><ellipse cx="404.735" cy="834.2078" fill="#F8F8F8" rx="49.669" ry="13.242" style="stroke: #383838; stroke-width: 0.5;"/><text fill="#000000" font-family="Tahoma, sans-serif" font-size="12" lengthAdjust="spacingAndGlyphs" textLength="66" x="371.735" y="837.95">signuppage</text><ellipse cx="917.4941" cy="167.1516" fill="#F8F8F8" rx="63.9281" ry="15.1856" style="stroke: #383838; stroke-width: 0.5;"/><text fill="#000000" font-family="Tahoma, sans-serif" font-size="12" lengthAdjust="spacingAndGlyphs" textLength="98" x="868.4941" y="170.8938">SingleDashboard</text><ellipse cx="251.9361" cy="884.2078" fill="#F8F8F8" rx="29.8701" ry="13.242" style="stroke: #383838; stroke-width: 0.5;"/><text fill="#000000" font-family="Tahoma, sans-serif" font-size="12" lengthAdjust="spacingAndGlyphs" textLength="38" x="232.9361" y="887.95">splash</text><ellipse cx="404.5927" cy="884.0711" fill="#F8F8F8" rx="63.5267" ry="15.1053" style="stroke: #383838; stroke-width: 0.5;"/><text fill="#000000" font-family="Tahoma, sans-serif" font-size="12" lengthAdjust="spacingAndGlyphs" textLength="97" x="356.0927" y="887.8133">threeBackground</text><ellipse cx="1079.7121" cy="167.208" fill="#F8F8F8" rx="17.1421" ry="13.242" style="stroke: #383838; stroke-width: 0.5;"/><text fill="#000000" font-family="Tahoma, sans-serif" font-size="12" lengthAdjust="spacingAndGlyphs" textLength="20" x="1069.7121" y="170.9502">Tile</text><ellipse cx="102.265" cy="326.208" fill="#F8F8F8" rx="32.6985" ry="13.242" style="stroke: #383838; stroke-width: 0.5;"/><text fill="#000000" font-family="Tahoma, sans-serif" font-size="12" font-weight="bold" lengthAdjust="spacingAndGlyphs" textLength="42" x="81.265" y="329.9502">toggle</text><ellipse cx="741.3295" cy="142.208" fill="#F8F8F8" rx="19.2635" ry="13.242" style="stroke: #383838; stroke-width: 0.5;"/><text fill="#000000" font-family="Tahoma, sans-serif" font-size="12" lengthAdjust="spacingAndGlyphs" textLength="23" x="729.8295" y="145.9502">UC3</text><ellipse cx="573.6086" cy="598.1745" fill="#F8F8F8" rx="61.5426" ry="14.7085" style="stroke: #383838; stroke-width: 0.5;"/><text fill="#000000" font-family="Tahoma, sans-serif" font-size="12" lengthAdjust="spacingAndGlyphs" textLength="92" x="527.6086" y="601.9167">unauthenticated</text><ellipse cx="404.664" cy="307.208" fill="#F8F8F8" rx="42.598" ry="13.242" style="stroke: #383838; stroke-width: 0.5;"/><text fill="#000000" font-family="Tahoma, sans-serif" font-size="12" lengthAdjust="spacingAndGlyphs" textLength="56" x="376.664" y="310.9502">usecase1</text><!--MD5=[db5fe4f12755ba01cb9caff797823408]
link AddTilePage to DataTable--><path d="M952.89,59.312 C979.169,51.921 1015.34,41.749 1042.13,34.215 " fill="none" id="AddTilePage-&gt;DataTable" style="stroke: #000000; stroke-width: 0.5;"/><polygon fill="#000000" points="1047.02,32.84,1037.2722,31.4327,1042.2077,34.197,1039.4434,39.1325,1047.02,32.84" style="stroke: #000000; stroke-width: 0.5;"/><!--MD5=[ed5cf76444e5b0bafef05b90eaa9eedf]
link AddTilePage to Graph--><path d="M968.654,71.713 C1011.45,74.826 1074.43,81.227 1128.07,93.966 C1143.3,97.584 1159.81,103.491 1172.86,108.654 " fill="none" id="AddTilePage-&gt;Graph" style="stroke: #000000; stroke-width: 0.5;"/><polygon fill="#000000" points="1177.51,110.517,1170.6595,103.4409,1172.873,108.6468,1167.6671,110.8602,1177.51,110.517" style="stroke: #000000; stroke-width: 0.5;"/><!--MD5=[47aa1e82bda0eb2d22aaf690060f65ad]
link App to callback--><path d="M119.957,570.02 C133.885,567.457 152.94,561.547 163.066,547.966 C225.889,463.706 156.274,169.525 206.066,76.966 C210.866,68.045 218.908,60.549 226.877,54.747 " fill="none" id="App-&gt;callback" style="stroke: #000000; stroke-width: 0.5;"/><polygon fill="#000000" points="231.276,51.699,221.6,53.5359,227.1659,54.5462,226.1555,60.1121,231.276,51.699" style="stroke: #000000; stroke-width: 0.5;"/><!--MD5=[6bfd45b05f2a7c27642994a0ffc77373]
link App to dashboard--><path d="M119.343,567.676 C132.012,563.834 149.639,557.347 163.066,547.966 C195.442,525.347 224.188,488.641 239.465,467.152 " fill="none" id="App-&gt;dashboard" style="stroke: #000000; stroke-width: 0.5;"/><polygon fill="#000000" points="242.517,462.808,234.0704,467.873,239.6428,466.8993,240.6165,472.4717,242.517,462.808" style="stroke: #000000; stroke-width: 0.5;"/><!--MD5=[b1737c2f6cf2bb20d89ceb4fc1e0ef16]
link App to loading--><path d="M119.685,569.215 C133.068,566.181 151.495,560.03 163.066,547.966 C202.864,506.476 181.695,478.036 206.066,425.966 C278.847,270.465 231.876,93.966 403.566,93.966 C403.566,93.966 403.566,93.966 574.566,93.966 C693.023,93.966 829.576,51.562 887.832,31.39 " fill="none" id="App-&gt;loading" style="stroke: #000000; stroke-width: 0.5;"/><polygon fill="#000000" points="892.89,29.627,883.0746,28.8157,888.1692,31.2744,885.7105,36.369,892.89,29.627" style="stroke: #000000; stroke-width: 0.5;"/><!--MD5=[12981c43e04416651ba5634b50cfa7d2]
link App to login--><path d="M114.68,581.46 C140.766,602.788 204.088,654.557 234.381,679.325 " fill="none" id="App-&gt;login" style="stroke: #000000; stroke-width: 0.5;"/><polygon fill="#000000" points="238.256,682.492,233.8205,673.6985,234.3852,679.3271,228.7566,679.8917,238.256,682.492" style="stroke: #000000; stroke-width: 0.5;"/><!--MD5=[a7293fa31a27013a75375aac5fa3f176]
link App to signup--><path d="M111.024,583.525 C135.644,619.291 210.656,728.261 239.55,770.236 " fill="none" id="App-&gt;signup" style="stroke: #000000; stroke-width: 0.5;"/><polygon fill="#000000" points="242.52,774.551,240.7107,764.8698,239.6845,770.4328,234.1215,769.4065,242.52,774.551" style="stroke: #000000; stroke-width: 0.5;"/><!--MD5=[bc50051df00da13bfb0ed397919418e7]
link App to splash--><path d="M107.703,584.446 C121.217,620.398 162.384,726.991 206.066,810.966 C216.402,830.8356 230.13,852.5615 239.694,867.1005 " fill="none" id="App-&gt;splash" style="stroke: #000000; stroke-width: 0.5;"/><polygon fill="#000000" points="242.521,871.3718,240.8908,861.6588,239.7621,867.2019,234.219,866.0731,242.521,871.3718" style="stroke: #000000; stroke-width: 0.5;"/><!--MD5=[ade7508b8fd28882668ed72a2a00701f]
link <b>App.test</b> to App--><path d="M64.7733,429.738 C47.733,434.498 29.2272,443.171 19.5665,458.966 C1.4778,488.539 1.4778,507.393 19.5665,536.966 C32.0118,557.313 59.1362,565.842 78.8963,569.411 " fill="none" id="&lt;b&gt;App.test&lt;/b&gt;-&gt;App" style="stroke: #000000; stroke-width: 1.0;"/><polygon fill="#000000" points="84.0015,570.253,75.7731,564.8407,79.0682,569.4387,74.4702,572.7339,84.0015,570.253" style="stroke: #000000; stroke-width: 1.0;"/><!--MD5=[d9164613e74922a40df437987a4d64f4]
link authwrapper to emailverification--><path d="M440.983,581.422 C465.86,574.719 499.375,565.688 526.354,558.418 " fill="none" id="authwrapper-&gt;emailverification" style="stroke: #000000; stroke-width: 0.5;"/><polygon fill="#000000" points="531.312,557.082,521.5811,555.562,526.4843,558.3832,523.6631,563.2863,531.312,557.082" style="stroke: #000000; stroke-width: 0.5;"/><!--MD5=[9455a0ad049be521968c51ea6c64f330]
link authwrapper to unauthenticated--><path d="M456.579,593.104 C472.661,593.778 490.648,594.532 507.567,595.241 " fill="none" id="authwrapper-&gt;unauthenticated" style="stroke: #000000; stroke-width: 0.5;"/><polygon fill="#000000" points="512.78,595.46,503.9547,591.0881,507.7844,595.2514,503.621,599.0811,512.78,595.46" style="stroke: #000000; stroke-width: 0.5;"/><!--MD5=[3568f0f224da7cfb85b722142a3e8b13]
link callback to loading--><path d="M288.271,39.905 C402.708,36.455 763.506,25.58 879.948,22.07 " fill="none" id="callback-&gt;loading" style="stroke: #000000; stroke-width: 0.5;"/><polygon fill="#000000" points="884.977,21.918,875.861,18.1898,879.9793,22.068,876.1011,26.1862,884.977,21.918" style="stroke: #000000; stroke-width: 0.5;"/><!--MD5=[91c17a8e3ba7dc1b7d4216ad9949cea1]
link CSVUploader to DestinationSelector--><path d="M796.667,422.21 C811.008,422.539 826.748,422.901 841.97,423.251 " fill="none" id="CSVUploader-&gt;DestinationSelector" style="stroke: #000000; stroke-width: 0.5;"/><polygon fill="#000000" points="847.109,423.369,838.2028,419.1643,842.1103,423.2547,838.0199,427.1622,847.109,423.369" style="stroke: #000000; stroke-width: 0.5;"/><!--MD5=[f4093858dad741d7581b2c1c1c359c8a]
link dashboard to authwrapper--><path d="M259.71,463.11 C272.4,486.991 302.311,537.73 341.066,566.966 C347.752,572.009 355.624,576.114 363.487,579.41 " fill="none" id="dashboard-&gt;authwrapper" style="stroke: #000000; stroke-width: 0.5;"/><polygon fill="#000000" points="368.37,581.359,361.4955,574.3062,363.7266,579.5045,358.5283,581.7356,368.37,581.359" style="stroke: #000000; stroke-width: 0.5;"/><!--MD5=[d8142cdfd36f27bfe8173d6ab50d7c61]
link dashboard to datageneration--><path d="M268.445,437.795 C285.615,424.486 314.49,402.929 341.066,386.966 C350.791,381.125 361.765,375.409 371.773,370.508 " fill="none" id="dashboard-&gt;datageneration" style="stroke: #000000; stroke-width: 0.5;"/><polygon fill="#000000" points="376.296,368.316,366.4526,368.6437,371.797,370.4976,369.9432,375.8421,376.296,368.316" style="stroke: #000000; stroke-width: 0.5;"/><!--MD5=[8f08b2bf94ac3cb6e75395cbc9d07a68]
link dashboard to DataIngestion--><path d="M286.956,441.48 C344.948,426.96 463.201,397.35 527.871,381.157 " fill="none" id="dashboard-&gt;DataIngestion" style="stroke: #000000; stroke-width: 0.5;"/><polygon fill="#000000" points="532.815,379.919,523.113,378.2246,527.9647,381.1334,525.056,385.9851,532.815,379.919" style="stroke: #000000; stroke-width: 0.5;"/><!--MD5=[23aed2e539576779e05e92da5adc5513]
link dashboard to faultmainpage--><path d="M298.165,449.542 C353.712,449.021 448.346,448.132 510.665,447.547 " fill="none" id="dashboard-&gt;faultmainpage" style="stroke: #000000; stroke-width: 0.5;"/><polygon fill="#000000" points="515.843,447.498,506.8057,443.5831,510.8432,447.5452,506.8811,451.5827,515.843,447.498" style="stroke: #000000; stroke-width: 0.5;"/><!--MD5=[4ffa706c00048ffd2d09f506da91bc70]
link dashboard to faultside--><path d="M293.531,455.792 C355.431,464.704 472.845,481.608 533.746,490.377 " fill="none" id="dashboard-&gt;faultside" style="stroke: #000000; stroke-width: 0.5;"/><polygon fill="#000000" points="538.745,491.096,530.4073,485.8536,533.7961,490.3831,529.2666,493.7719,538.745,491.096" style="stroke: #000000; stroke-width: 0.5;"/><!--MD5=[38bb784ea72fc3c6a2850c17b4838b80]
link dashboard to header--><path d="M256.007,463.215 C263.792,494.987 288.08,575.776 341.066,614.966 C355.983,625.998 615.327,671.43 707.989,687.391 " fill="none" id="dashboard-&gt;header" style="stroke: #000000; stroke-width: 0.5;"/><polygon fill="#000000" points="713.063,688.264,704.8725,682.7945,708.1355,687.4154,703.5147,690.6784,713.063,688.264" style="stroke: #000000; stroke-width: 0.5;"/><!--MD5=[63fdb639ebc13b2d85df09dc4c49b1f9]
link dashboard to UC3--><path d="M256.475,436.586 C265.143,405.202 290.974,326.245 341.066,282.966 C457.183,182.643 649.379,152.191 716.524,144.357 " fill="none" id="dashboard-&gt;UC3" style="stroke: #000000; stroke-width: 0.5;"/><polygon fill="#000000" points="721.886,143.749,712.4928,140.7878,716.9178,144.312,713.3936,148.7369,721.886,143.749" style="stroke: #000000; stroke-width: 0.5;"/><!--MD5=[6ad958b21704831808c7adea8202430d]
link dashboard to usecase1--><path d="M259.454,436.973 C271.934,412.838 301.802,360.836 341.066,330.966 C348.638,325.206 357.756,320.676 366.658,317.178 " fill="none" id="dashboard-&gt;usecase1" style="stroke: #000000; stroke-width: 0.5;"/><polygon fill="#000000" points="371.57,315.34,361.7389,314.7489,366.8873,317.0928,364.5434,322.2412,371.57,315.34" style="stroke: #000000; stroke-width: 0.5;"/><!--MD5=[2750fcbee84542172313ed7f4a6f0e0c]
link DatabasePage to DatabaseManage--><path d="M800.023,270.966 C815.231,270.966 831.805,270.966 847.557,270.966 " fill="none" id="DatabasePage-&gt;DatabaseManage" style="stroke: #000000; stroke-width: 0.5;"/><polygon fill="#000000" points="852.864,270.966,843.864,266.966,847.864,270.966,843.864,274.966,852.864,270.966" style="stroke: #000000; stroke-width: 0.5;"/><!--MD5=[df36713fb0043931f579c4f64c6e51c1]
link DatabasePage to DatabaseView--><path d="M778.619,281.74 C806.849,290.177 846.128,301.915 875.555,310.71 " fill="none" id="DatabasePage-&gt;DatabaseView" style="stroke: #000000; stroke-width: 0.5;"/><polygon fill="#000000" points="880.56,312.205,873.0821,305.7955,875.7693,310.7734,870.7915,313.4606,880.56,312.205" style="stroke: #000000; stroke-width: 0.5;"/><!--MD5=[da7835cd6f4a00bab0f01aad0f779081]
link DataIngestion to CSVUploader--><path d="M610.178,380.907 C636.993,389.145 673.733,400.433 701.381,408.927 " fill="none" id="DataIngestion-&gt;CSVUploader" style="stroke: #000000; stroke-width: 0.5;"/><polygon fill="#000000" points="706.433,410.479,699.0052,404.0116,701.6536,409.0102,696.655,411.6586,706.433,410.479" style="stroke: #000000; stroke-width: 0.5;"/><!--MD5=[a6725c76476b2f942d49d6cd9fa1f52f]
link DataIngestion to DatabasePage--><path d="M591.154,356.389 C611.129,340.483 646.116,314.015 679.066,295.966 C686.684,291.793 695.146,287.911 703.295,284.509 " fill="none" id="DataIngestion-&gt;DatabasePage" style="stroke: #000000; stroke-width: 0.5;"/><polygon fill="#000000" points="708.319,282.455,698.4745,282.1604,703.6912,284.3481,701.5035,289.5648,708.319,282.455" style="stroke: #000000; stroke-width: 0.5;"/><!--MD5=[8bbc52589aa6fea0411855372dff0fed]
link DataIngestion to PhoneSpecsApp--><path d="M631.23,369.966 C645.032,369.966 659.919,369.966 674.13,369.966 " fill="none" id="DataIngestion-&gt;PhoneSpecsApp" style="stroke: #000000; stroke-width: 0.5;"/><polygon fill="#000000" points="679.332,369.966,670.332,365.966,674.332,369.966,670.332,373.966,679.332,369.966" style="stroke: #000000; stroke-width: 0.5;"/><!--MD5=[06b52ea06c598283f388db0ee4695e3c]
link DataIngestion to PhoneTable--><path d="M610.586,359.117 C637.876,350.897 675.268,339.634 702.943,331.298 " fill="none" id="DataIngestion-&gt;PhoneTable" style="stroke: #000000; stroke-width: 0.5;"/><polygon fill="#000000" points="707.993,329.777,698.2219,328.5417,703.2053,331.2186,700.5285,336.202,707.993,329.777" style="stroke: #000000; stroke-width: 0.5;"/><!--MD5=[08578554e8f28b39d58120982282e34c]
link faultmainpage to AlertConfig--><path d="M613.785,457.077 C621.982,460.681 629.973,465.514 636.066,471.966 C676.693,514.986 638.139,555.232 679.066,597.966 C684.778,603.929 692.146,608.437 699.785,611.836 " fill="none" id="faultmainpage-&gt;AlertConfig" style="stroke: #000000; stroke-width: 0.5;"/><polygon fill="#000000" points="704.564,613.813,697.7769,606.6761,699.9438,611.9015,694.7185,614.0684,704.564,613.813" style="stroke: #000000; stroke-width: 0.5;"/><!--MD5=[536a40a60591909d3a0ff3a687429fc8]
link faultmainpage to AlertsList--><path d="M623.923,453.804 C648.001,457.14 676.627,461.107 699.495,464.275 " fill="none" id="faultmainpage-&gt;AlertsList" style="stroke: #000000; stroke-width: 0.5;"/><polygon fill="#000000" points="704.58,464.98,696.2136,459.7835,699.6272,464.2943,695.1165,467.7079,704.58,464.98" style="stroke: #000000; stroke-width: 0.5;"/><!--MD5=[08d88fd3dfaf4d3883e047a4459c485c]
link faultmainpage to DatabaseUpload--><path d="M605.133,458.783 C615.076,462.788 626.112,467.406 636.066,471.966 C655.584,480.905 659.612,484.891 679.066,493.966 C686.983,497.659 695.568,501.43 703.742,504.914 " fill="none" id="faultmainpage-&gt;DatabaseUpload" style="stroke: #000000; stroke-width: 0.5;"/><polygon fill="#000000" points="708.769,507.043,702.0415,499.8499,704.1649,505.0931,698.9217,507.2164,708.769,507.043" style="stroke: #000000; stroke-width: 0.5;"/><!--MD5=[78a5d57154394747515da0858841eaf2]
link faultmainpage to SchemaUpload--><path d="M611.932,457.593 C620.49,461.21 629.106,465.919 636.066,471.966 C664.783,496.912 650.524,520.821 679.066,545.966 C684.72,550.947 691.468,555.074 698.389,558.461 " fill="none" id="faultmainpage-&gt;SchemaUpload" style="stroke: #000000; stroke-width: 0.5;"/><polygon fill="#000000" points="703.197,560.688,696.7124,553.2752,698.6603,558.5861,693.3493,560.534,703.197,560.688" style="stroke: #000000; stroke-width: 0.5;"/><!--MD5=[893f7b7637e22df589de0e5c7f34855e]
link <b>index</b> to App--><path d="M75.253,475.585 C55.9441,479.778 31.3083,488.769 19.5665,507.966 C12.8412,518.961 12.8412,525.971 19.5665,536.966 C32.0118,557.313 59.1362,565.842 78.8963,569.411 " fill="none" id="&lt;b&gt;index&lt;/b&gt;-&gt;App" style="stroke: #000000; stroke-width: 1.0;"/><polygon fill="#000000" points="84.0015,570.253,75.7731,564.8407,79.0682,569.4387,74.4702,572.7339,84.0015,570.253" style="stroke: #000000; stroke-width: 1.0;"/><!--MD5=[318060c9d36180d01866d95e8e3ffd8f]
link <b>index</b> to reportWebVitals--><path d="M102.0665,485.149 C102.0665,490.757 102.0665,496.365 102.0665,501.972 " fill="none" id="&lt;b&gt;index&lt;/b&gt;-&gt;reportWebVitals" style="stroke: #000000; stroke-width: 1.0;"/><polygon fill="#000000" points="102.0665,507.122,106.0665,498.122,102.0665,502.122,98.0665,498.122,102.0665,507.122" style="stroke: #000000; stroke-width: 1.0;"/><!--MD5=[d2c0251a3d3234886542c530f483d17d]
link Landing to DashBoard--><path d="M951.719,117.173 C973.082,117.307 1001.328,117.483 1025.74,117.636 " fill="none" id="Landing-&gt;DashBoard" style="stroke: #000000; stroke-width: 0.5;"/><polygon fill="#000000" points="1030.89,117.668,1021.913,113.6166,1025.8901,117.6394,1021.8673,121.6165,1030.89,117.668" style="stroke: #000000; stroke-width: 0.5;"/><!--MD5=[9106451a136e9d0261277c8f8e4aab70]
link <b>layout</b> to authwrapper--><path d="M404.566,556.044 C404.566,561.607 404.566,567.169 404.566,572.732 " fill="none" id="&lt;b&gt;layout&lt;/b&gt;-&gt;authwrapper" style="stroke: #000000; stroke-width: 1.0;"/><polygon fill="#000000" points="404.566,577.841,408.566,568.841,404.566,572.841,400.566,568.841,404.566,577.841" style="stroke: #000000; stroke-width: 1.0;"/><!--MD5=[4aec7ba6c31e6fabe0b1573f3a462e52]
link login to header--><path d="M275.28,692.966 C352.792,692.966 611.665,692.966 705.89,692.966 " fill="none" id="login-&gt;header" style="stroke: #000000; stroke-width: 0.5;"/><polygon fill="#000000" points="711.055,692.966,702.055,688.966,706.055,692.966,702.055,696.966,711.055,692.966" style="stroke: #000000; stroke-width: 0.5;"/><!--MD5=[b53debf93695751cc7a0d529bf207627]
link login to loginpage--><path d="M272.434,699.014 C296.824,706.631 339.16,719.852 369.122,729.209 " fill="none" id="login-&gt;loginpage" style="stroke: #000000; stroke-width: 0.5;"/><polygon fill="#000000" points="374.192,730.792,366.7929,724.2917,369.4192,729.302,364.4089,731.9283,374.192,730.792" style="stroke: #000000; stroke-width: 0.5;"/><!--MD5=[5e7d8f9eba17c5aa9d3700c58481d59d]
link PhoneSpecsApp to LatestPhones--><path d="M803.423,371.015 C820.564,371.311 839.198,371.632 856.304,371.927 " fill="none" id="PhoneSpecsApp-&gt;LatestPhones" style="stroke: #000000; stroke-width: 0.5;"/><polygon fill="#000000" points="861.56,372.017,852.6299,367.8633,856.5607,371.9313,852.4928,375.8621,861.56,372.017" style="stroke: #000000; stroke-width: 0.5;"/><!--MD5=[2e53ddb12f10de866924ea0faee38153]
link Read_OnlyDash to Tile--><path d="M954.474,207.296 C986.606,196.853 1032.54,181.925 1058.56,173.467 " fill="none" id="Read_OnlyDash-&gt;Tile" style="stroke: #000000; stroke-width: 0.5;"/><polygon fill="#000000" points="1063.49,171.864,1053.6948,170.8374,1058.7342,173.4074,1056.1642,178.4467,1063.49,171.864" style="stroke: #000000; stroke-width: 0.5;"/><!--MD5=[51a55b75863b901b5bae8329d2feb292]
link signup to header--><path d="M282.126,785.23 C323.628,782.44 402.15,776.01 468.066,763.966 C558.035,747.527 662.031,717.199 711.509,702.06 " fill="none" id="signup-&gt;header" style="stroke: #000000; stroke-width: 0.5;"/><polygon fill="#000000" points="716.411,700.555,706.6335,699.3719,711.6311,702.0221,708.9808,707.0197,716.411,700.555" style="stroke: #000000; stroke-width: 0.5;"/><!--MD5=[2aca5518d5461def47e15677df8f9f8e]
link signup to signuppage--><path d="M276.914,794.413 C301.102,801.967 338.865,813.76 366.868,822.5052 " fill="none" id="signup-&gt;signuppage" style="stroke: #000000; stroke-width: 0.5;"/><polygon fill="#000000" points="371.978,824.101,364.579,817.6007,367.2052,822.611,362.1949,825.2372,371.978,824.101" style="stroke: #000000; stroke-width: 0.5;"/><!--MD5=[42c806432934503b5c335b4a7e27b302]
link SingleDashboard to Tile--><path d="M981.803,166.966 C1008.63,166.966 1038.09,166.966 1057.37,166.966 " fill="none" id="SingleDashboard-&gt;Tile" style="stroke: #000000; stroke-width: 0.5;"/><polygon fill="#000000" points="1062.53,166.966,1053.53,162.966,1057.53,166.966,1053.53,170.966,1062.53,166.966" style="stroke: #000000; stroke-width: 0.5;"/><!--MD5=[c600fb1be9cc148da4d9b81375ccbb3f]
link splash to header--><path d="M274.499,892.7258 C313.96,907.5252 400.275,933.6604 468.066,909.9658 C586.145,868.6948 691.298,752.467 727.337,709.34 " fill="none" id="splash-&gt;header" style="stroke: #000000; stroke-width: 0.5;"/><polygon fill="#000000" points="730.607,705.4,721.782,709.7726,727.4145,709.2481,727.939,714.8806,730.607,705.4" style="stroke: #000000; stroke-width: 0.5;"/><!--MD5=[417423846b74cf4e254164fa1b3b60ea]
link splash to threeBackground--><path d="M282.084,883.9658 C297.387,883.9658 316.855,883.9658 335.699,883.9658 " fill="none" id="splash-&gt;threeBackground" style="stroke: #000000; stroke-width: 0.5;"/><polygon fill="#000000" points="340.994,883.9658,331.994,879.9658,335.994,883.9658,331.994,887.9658,340.994,883.9658" style="stroke: #000000; stroke-width: 0.5;"/><!--MD5=[218f78a2e62c62d920aa96b627f49a43]
link Tile to Graph--><path d="M1094.85,161.08 C1114.02,153.18 1148.39,139.021 1171.94,129.319 " fill="none" id="Tile-&gt;Graph" style="stroke: #000000; stroke-width: 0.5;"/><polygon fill="#000000" points="1176.79,127.32,1166.9451,127.0416,1172.1654,129.2207,1169.9862,134.441,1176.79,127.32" style="stroke: #000000; stroke-width: 0.5;"/><!--MD5=[8711d85a188c87ed5b312c5a9e4a2659]
link UC3 to AddTilePage--><path d="M757.573,134.313 C777.672,124.207 814.574,106.151 847.066,92.966 C857.632,88.679 869.285,84.461 879.981,80.787 " fill="none" id="UC3-&gt;AddTilePage" style="stroke: #000000; stroke-width: 0.5;"/><polygon fill="#000000" points="884.821,79.139,875.0118,78.2559,880.0883,80.7518,877.5923,85.8283,884.821,79.139" style="stroke: #000000; stroke-width: 0.5;"/><!--MD5=[8405e5d0060c8cdb6c7fe52be2afd878]
link UC3 to Landing--><path d="M760.859,139.338 C789.051,135.287 843.672,127.439 880.137,122.2 " fill="none" id="UC3-&gt;Landing" style="stroke: #000000; stroke-width: 0.5;"/><polygon fill="#000000" points="885.38,121.447,875.9024,118.7684,880.4309,122.1585,877.0408,126.687,885.38,121.447" style="stroke: #000000; stroke-width: 0.5;"/><!--MD5=[e6fc02d3b40c485d541506ecb40c6632]
link UC3 to loading--><path d="M759.398,136.267 C772.636,131.17 790.97,122.689 804.066,110.966 C830.152,87.616 819.472,66.512 847.066,44.966 C857.367,36.923 870.543,31.475 882.649,27.832 " fill="none" id="UC3-&gt;loading" style="stroke: #000000; stroke-width: 0.5;"/><polygon fill="#000000" points="887.76,26.379,878.0093,24.992,882.9505,27.746,880.1965,32.6872,887.76,26.379" style="stroke: #000000; stroke-width: 0.5;"/><!--MD5=[d719eab89dc49d20b7a0a38e20e5b5b6]
link UC3 to Read_OnlyDash--><path d="M757.584,149.862 C777.695,160.304 814.61,179.013 847.066,192.966 C856.932,197.207 867.742,201.443 877.835,205.227 " fill="none" id="UC3-&gt;Read_OnlyDash" style="stroke: #000000; stroke-width: 0.5;"/><polygon fill="#000000" points="882.725,207.047,875.6841,200.1604,878.0387,205.3039,872.8951,207.6585,882.725,207.047" style="stroke: #000000; stroke-width: 0.5;"/><!--MD5=[40b39ce83c45fc8615a51e64d6eaf21b]
link UC3 to SingleDashboard--><path d="M760.859,144.594 C783.552,147.855 823.369,153.575 857.057,158.416 " fill="none" id="UC3-&gt;SingleDashboard" style="stroke: #000000; stroke-width: 0.5;"/><polygon fill="#000000" points="862.408,159.184,854.0688,153.944,857.4589,158.4725,852.9304,161.8626,862.408,159.184" style="stroke: #000000; stroke-width: 0.5;"/><!--MD5=[167cbb3034c403badaff2526edbb0886]
link unauthenticated to header--><path d="M600.794,611.154 C611.776,616.794 624.624,623.548 636.066,629.966 C665.391,646.413 698.52,666.681 719.466,679.711 " fill="none" id="unauthenticated-&gt;header" style="stroke: #000000; stroke-width: 0.5;"/><polygon fill="#000000" points="723.745,682.378,718.2226,674.223,719.5016,679.7334,713.9913,681.0124,723.745,682.378" style="stroke: #000000; stroke-width: 0.5;"/><script type="text/plantuml"><![CDATA[MD5=[67402ee3d5c9f9aee1b76ee61dfd31cb]
@startuml

scale max 1920 width
left to right direction

skinparam nodesep 22
skinparam ranksep 43
skinparam monochrome true
skinparam shadowing false
skinparam defaultFontName Tahoma
skinparam defaultFontSize 12
skinparam roundCorner 6
skinparam dpi 150
skinparam arrowColor black
skinparam arrowThickness 0.5
skinparam packageTitleAlignment left

skinparam usecase {
  borderThickness 0.5
}

skinparam rectangle {
  borderThickness 0.5
}

skinparam component {
  borderThickness 1
}


(AddTilePage)
(AlertConfig)
(AlertsList)
(App)
(<b>App.test</b>)
(authwrapper)
(callback)
(CSVUploader)
(dashboard)
(DashBoard)
(DatabaseManage)
(DatabasePage)
(DatabaseUpload)
(DatabaseView)
(datageneration)
(DataIngestion)
(DataTable)
(DestinationSelector)
(emailverification)
(faultmainpage)
(faultside)
(Graph)
(header)
(<b>index</b>)
(Landing)
(LatestPhones)
(<b>layout</b>)
(loading)
(login)
(loginpage)
(PhoneSpecsApp)
(PhoneTable)
(Read_OnlyDash)
(reportWebVitals)
(SchemaUpload)
(<b>setupTests</b>)
(signup)
(signuppage)
(SingleDashboard)
(splash)
(threeBackground)
(Tile)
(<b>toggle</b>)
(UC3)
(unauthenticated)
(usecase1)


(AddTilePage) --> (DataTable)
(AddTilePage) --> (Graph)
(App) --> (callback)
(App) --> (dashboard)
(App) --> (loading)
(App) --> (login)
(App) --> (signup)
(App) --> (splash)
(<b>App.test</b>) -[thickness=1]> (App)
(authwrapper) --> (emailverification)
(authwrapper) --> (unauthenticated)
(callback) --> (loading)
(CSVUploader) --> (DestinationSelector)
(dashboard) --> (authwrapper)
(dashboard) --> (datageneration)
(dashboard) ---> (DataIngestion)
(dashboard) ---> (faultmainpage)
(dashboard) ---> (faultside)
(dashboard) --> (header)
(dashboard) ----> (UC3)
(dashboard) --> (usecase1)
(DatabasePage) --> (DatabaseManage)
(DatabasePage) --> (DatabaseView)
(DataIngestion) --> (CSVUploader)
(DataIngestion) --> (DatabasePage)
(DataIngestion) --> (PhoneSpecsApp)
(DataIngestion) --> (PhoneTable)
(faultmainpage) --> (AlertConfig)
(faultmainpage) --> (AlertsList)
(faultmainpage) --> (DatabaseUpload)
(faultmainpage) --> (SchemaUpload)
(<b>index</b>) -[thickness=1]> (App)
(<b>index</b>) -[thickness=1]> (reportWebVitals)
(Landing) --> (DashBoard)
(<b>layout</b>) -[thickness=1]> (authwrapper)
(login) --> (header)
(login) --> (loginpage)
(PhoneSpecsApp) --> (LatestPhones)
(Read_OnlyDash) --> (Tile)
(signup) --> (header)
(signup) --> (signuppage)
(SingleDashboard) --> (Tile)
(splash) --> (header)
(splash) --> (threeBackground)
(Tile) --> (Graph)
(UC3) --> (AddTilePage)
(UC3) --> (Landing)
(UC3) --> (loading)
(UC3) --> (Read_OnlyDash)
(UC3) --> (SingleDashboard)
(unauthenticated) --> (header)

@enduml


' View and edit on https://arkit.pro
]]></script></g></svg>